<svg width="24" height="25" viewBox="0 0 24 25" fill="none" xmlns="http://www.w3.org/2000/svg">
<path id="Vector" d="M12.75 6.77147C12.75 6.35726 12.4142 6.02147 12 6.02147C11.5858 6.02147 11.25 6.35726 11.25 6.77147V12.0215H6C5.58578 12.0215 5.25 12.3573 5.25 12.7715C5.25 13.1857 5.58578 13.5215 6 13.5215H11.25V18.7715C11.25 19.1857 11.5858 19.5215 12 19.5215C12.4142 19.5215 12.75 19.1857 12.75 18.7715V13.5215H18C18.4142 13.5215 18.75 13.1857 18.75 12.7715C18.75 12.3573 18.4142 12.0215 18 12.0215H12.75V6.77147ZM23.25 12.7715C23.25 18.9847 18.2132 24.0215 12 24.0215C5.7868 24.0215 0.75 18.9847 0.75 12.7715C0.75 6.55828 5.7868 1.52148 12 1.52148C18.2132 1.52148 23.25 6.55828 23.25 12.7715Z" stroke="white" stroke-width="1.5" stroke-linecap="round" stroke-linejoin="round"/>
</svg>
