<svg width="42" height="42" viewBox="0 0 42 42" fill="none" xmlns="http://www.w3.org/2000/svg">
<g id="state=hovered">
<path id="Vector" d="M3.5 42C3.5 42 0 42 0 38.5C0 35 3.5 24.5 21 24.5C38.5 24.5 42 35 42 38.5C42 42 38.5 42 38.5 42H3.5ZM21 21C23.7848 21 26.4555 19.8938 28.4246 17.9246C30.3938 15.9555 31.5 13.2848 31.5 10.5C31.5 7.71523 30.3938 5.04451 28.4246 3.07538C26.4555 1.10625 23.7848 0 21 0C18.2152 0 15.5445 1.10625 13.5754 3.07538C11.6062 5.04451 10.5 7.71523 10.5 10.5C10.5 13.2848 11.6062 15.9555 13.5754 17.9246C15.5445 19.8938 18.2152 21 21 21Z" fill="#002743"/>
</g>
</svg>
